<svg xmlns="http://www.w3.org/2000/svg" version="1.1" xmlns:xlink="http://www.w3.org/1999/xlink" xmlns:svgjs="http://svgjs.dev/svgjs" width="1500" height="1500" viewBox="0 0 1500 1500"><rect width="1500" height="1500" fill="#000000"></rect><g transform="matrix(0.6666666666666666,0,0,0.6666666666666666,249.39393939393938,438.5856950067477)"><svg viewBox="0 0 396 247" data-background-color="#636365" preserveAspectRatio="xMidYMid meet" height="935" width="1500" xmlns="http://www.w3.org/2000/svg" xmlns:xlink="http://www.w3.org/1999/xlink"><g id="tight-bounds" transform="matrix(1,0,0,1,0.2400000000000091,-0.09999999999999432)"><svg viewBox="0 0 395.52 247.2" height="247.2" width="395.52"><g><svg></svg></g><g><svg viewBox="0 0 395.52 247.2" height="247.2" width="395.52"><g transform="matrix(1,0,0,1,75.54432,90.48503106381975)"><svg viewBox="0 0 244.43135999999998 66.22993787236051" height="66.22993787236051" width="244.43135999999998"><g><svg viewBox="0 0 358.0049402100326 97.00328529084238" height="66.22993787236051" width="244.43135999999998"><g transform="matrix(1,0,0,1,113.57358021003262,13.40638747507301)"><svg viewBox="0 0 244.43135999999998 70.19051034069636" height="70.19051034069636" width="244.43135999999998"><g id="textblocktransform"><svg viewBox="0 0 244.43135999999998 70.19051034069636" height="70.19051034069636" width="244.43135999999998" id="textblock"><g><svg viewBox="0 0 244.43135999999998 70.19051034069636" height="70.19051034069636" width="244.43135999999998"><g transform="matrix(1,0,0,1,0,0)"><svg width="244.43135999999998" viewBox="1.6 -38.05 133.54 38.349999999999994" height="70.19051034069636" data-palette-color="#d2d6dc"><path d="M2.1-27.05L2.1-27.05Q2.1-31.8 6.3-34.93 10.5-38.05 17.4-38.05L17.4-38.05Q21.05-38.05 23.95-37.33 26.85-36.6 28.55-35.5 30.25-34.4 31.4-32.95L31.4-32.95Q33.3-30.45 33.27-27.38 33.25-24.3 30.85-21.9 28.45-19.5 25.05-19.4L25.05-19.4Q29.3-19.1 32.43-16.6 35.55-14.1 35.55-10.3L35.55-10.3Q35.55-5.3 31.7-2.5 27.85 0.3 22.33 0.3 16.8 0.3 14.8-1.15L14.8-1.15 16.35-5.35Q18.55-4.2 21.48-4.2 24.4-4.2 26.25-5.93 28.1-7.65 28.1-10.5 28.1-13.35 25.58-15.3 23.05-17.25 18.7-17.25L18.7-17.25 19.15-20.95Q22.15-20.95 24.23-22.38 26.3-23.8 26.38-26.65 26.45-29.5 23.8-31.45L23.8-31.45Q20.95-33.5 16-33.5L16-33.5Q12.75-33.5 9.65-31.83 6.55-30.15 6.55-27.35L6.55-27.35Q6.55-26 7.65-25.08 8.75-24.15 10.55-23.95L10.55-23.95 10-20.25Q6.2-20.4 4.15-22.4 2.1-24.4 2.1-27.05ZM16.4-9.6Q15.6-4.25 13.3-2.02 11 0.2 7.9 0.2 4.8 0.2 3.2-1.4 1.6-3 1.6-5.5L1.6-5.5Q1.6-11.4 10.55-15.55L10.55-15.55Q10.8-17.65 11.28-21.23 11.75-24.8 12.03-27 12.3-29.2 12.4-29.9L12.4-29.9Q14.45-31.2 17.15-31.2L17.15-31.2Q18.4-31.2 19.55-30.95L19.55-30.95 16.4-9.6ZM5.3-6.15L5.3-6.15Q5.3-4.35 7-4.35L7-4.35Q7.7-4.35 8.47-5.28 9.25-6.2 9.55-8.2L9.55-8.2 10-11.3Q5.3-8.65 5.3-6.15ZM50.1-24.05L50.1-24.05Q54.7-24.05 57.77-21.1 60.85-18.15 60.85-13.9L60.85-13.9Q60.85-7.45 57.07-3.58 53.3 0.3 47.95 0.3 42.6 0.3 39.47-2.75 36.35-5.8 36.35-10.3L36.35-10.3Q36.35-16.6 40.2-20.3L40.2-20.3Q44.1-24.05 50.1-24.05ZM49.12-20Q46.75-20 45.15-17.3 43.55-14.6 43.4-10.5L43.4-10.5Q43.4-7.6 44.57-5.7 45.75-3.8 48.15-3.8 50.55-3.8 52.17-6.45 53.8-9.1 53.8-12.5 53.8-15.9 52.65-17.9L52.65-17.9Q51.5-20 49.12-20ZM76.09-24.05L76.09-24.05Q80.7-24.05 83.77-21.1 86.84-18.15 86.84-13.9L86.84-13.9Q86.84-7.45 83.07-3.58 79.3 0.3 73.95 0.3 68.59 0.3 65.47-2.75 62.35-5.8 62.35-10.3L62.35-10.3Q62.35-16.6 66.2-20.3L66.2-20.3Q70.09-24.05 76.09-24.05ZM75.12-20Q72.75-20 71.15-17.3 69.55-14.6 69.4-10.5L69.4-10.5Q69.4-7.6 70.57-5.7 71.75-3.8 74.15-3.8 76.55-3.8 78.17-6.45 79.8-9.1 79.8-12.5 79.8-15.9 78.65-17.9L78.65-17.9Q77.5-20 75.12-20ZM100.29-34.8L100.29-34.8Q100.29-34.5 98.94-24.05L98.94-24.05 106.29-24.05 106.29-20.2 98.44-20.2 98.29-18.95Q104.14-14.05 104.14-8.25L104.14-8.25Q104.14-3.7 101.82-1.7 99.49 0.3 96.24 0.3 92.99 0.3 91.49-1.43 89.99-3.15 89.99-5.6L89.99-5.6Q89.99-6.15 90.09-6.8L90.09-6.8 91.64-20.1 91.44-20.2 87.39-20.2Q87.34-20.7 87.34-21.83 87.34-22.95 87.79-24.05L87.79-24.05 92.09-24.05 93.69-37.65Q94.74-38.05 96.49-38.05L96.49-38.05Q100.29-38.05 100.29-34.8ZM100.79-8.3L100.79-8.3Q100.79-11.75 97.79-15.1L97.79-15.1Q96.89-7.65 96.89-6.5L96.89-6.5Q96.89-4.25 98.34-4.25L98.34-4.25Q99.39-4.25 100.09-5.23 100.79-6.2 100.79-8.3ZM119.84-5.7L119.84-5.7 121.04-16.75Q121.04-18.1 120.34-19 119.64-19.9 118.09-19.9 116.54-19.9 115.47-18.68 114.39-17.45 113.89-15.45L113.89-15.45Q113.54-12.6 112.84-7.13 112.14-1.65 111.94 0L111.94 0 105.29 0Q108.89-30.65 109.64-37.65L109.64-37.65Q110.69-38.05 112.49-38.05L112.49-38.05Q116.39-38.05 116.39-35.75L116.39-35.75 116.39-35.45Q115.54-27.6 114.59-21.65L114.59-21.65Q117.24-24.05 120.59-24.05 123.94-24.05 125.89-22.35 127.84-20.65 127.84-18.05L127.84-18.05Q127.84-17.35 127.54-15.45L127.54-15.45Q126.39-7.95 126.39-6.65L126.39-6.65Q126.39-4.3 127.94-4.3L127.94-4.3Q129.24-4.3 130.72-6.03 132.19-7.75 133.09-11.35L133.09-11.35Q134.79-9.55 135.14-8.5L135.14-8.5Q132.54 0.2 125.94 0.2L125.94 0.2Q122.84 0.2 121.34-1.7 119.84-3.6 119.84-5.7Z" opacity="1" transform="matrix(1,0,0,1,0,0)" fill="#ffffff" class="wordmark-text-0" data-fill-palette-color="primary" id="text-0"></path></svg></g></svg></g></svg></g></svg></g><g><svg viewBox="0 0 97.00328529084238 97.00328529084238" height="97.00328529084238" width="97.00328529084238"><g><svg xmlns="http://www.w3.org/2000/svg" xmlns:xlink="http://www.w3.org/1999/xlink" version="1.1" x="0" y="0" viewBox="1 1 62 62" style="enable-background:new 0 0 64 64;" xml:space="preserve" height="97.00328529084238" width="97.00328529084238" class="icon-icon-0" data-fill-palette-color="accent" id="icon-0"><g fill="#e1e1c0" data-fill-palette-color="accent"><path d="M17 47c-3.309 0-6 2.691-6 6s2.691 6 6 6 6-2.691 6-6S20.309 47 17 47zM20.858 52H18v-2.858C19.399 49.505 20.495 50.601 20.858 52zM16 49.142V52h-2.858C13.505 50.601 14.601 49.505 16 49.142zM13.142 54H16v2.858C14.601 56.495 13.505 55.399 13.142 54zM18 56.858V54h2.858C20.495 55.399 19.399 56.495 18 56.858z" fill="#ffffff" data-fill-palette-color="accent"></path><path d="M63 9V8c0-3.86-3.141-7-7-7H8C4.141 1 1 4.14 1 8v1h3v26H1v17c0 1.654 1.346 3 3 3h3.202c0.929 4.559 4.97 8 9.798 8s8.869-3.441 9.798-8h24.227C50.391 55.838 50 56.87 50 58c0 2.757 2.243 5 5 5s5-2.243 5-5c0-1.13-0.391-2.162-1.026-3H60c1.654 0 3-1.346 3-3V35h-3V9H63zM8 3h48c2.415 0 4.435 1.721 4.899 4H3.101C3.565 4.721 5.585 3 8 3zM50 35V23H34v3.069c-1.161-1.038-2.508-1.836-3.966-2.358C31.825 22.442 33 20.358 33 18c0-3.86-3.141-7-7-7s-7 3.14-7 7c0 2.358 1.176 4.443 2.968 5.712C17.331 25.374 14 29.799 14 35h-2V9h40v26H50zM21 18c0-2.757 2.243-5 5-5s5 2.243 5 5-2.243 5-5 5S21 20.757 21 18zM28.651 25.372C28.149 26.348 27.144 27 26 27c-1.144 0-2.151-0.654-2.653-1.631C24.193 25.135 25.08 25 26 25 26.907 25 27.795 25.136 28.651 25.372zM21.483 26.09C22.284 27.825 24.019 29 26 29c1.984 0 3.719-1.177 4.518-2.913 1.356 0.688 2.548 1.688 3.482 2.934V35H16C16 31.112 18.235 27.744 21.483 26.09zM48 35H36V25h12V35zM6 9h4v26H6V9zM17 61c-4.411 0-8-3.589-8-8s3.589-8 8-8 8 3.589 8 8S21.411 61 17 61zM58 58c0 1.654-1.346 3-3 3s-3-1.346-3-3 1.346-3 3-3S58 56.346 58 58zM60 53H27c0-5.514-4.486-10-10-10S7 47.486 7 53H4c-0.552 0-1-0.448-1-1V41h58v11C61 52.552 60.552 53 60 53zM61 39H3v-2h58V39zM58 35h-4V9h4V35z" fill="#ffffff" data-fill-palette-color="accent"></path><rect x="38" y="27" width="8" height="2" fill="#ffffff" data-fill-palette-color="accent"></rect><rect x="38" y="31" width="8" height="2" fill="#ffffff" data-fill-palette-color="accent"></rect><rect x="57" y="43" width="2" height="2" fill="#ffffff" data-fill-palette-color="accent"></rect><rect x="57" y="47" width="2" height="2" fill="#ffffff" data-fill-palette-color="accent"></rect><rect x="29" y="49" width="2" height="2" fill="#ffffff" data-fill-palette-color="accent"></rect><rect x="33" y="49" width="2" height="2" fill="#ffffff" data-fill-palette-color="accent"></rect><rect x="37" y="49" width="2" height="2" fill="#ffffff" data-fill-palette-color="accent"></rect></g></svg></g></svg></g></svg></g></svg></g><g><path d="M0 123.6c0-68.262 55.338-123.6 123.6-123.6 54.719 0 101.134 35.558 117.397 84.828l-2.279 0c-16.179-48.057-61.607-82.667-115.118-82.667-67.069 0-121.439 54.37-121.439 121.439 0 67.069 54.37 121.439 121.439 121.439 53.511 0 98.939-34.611 115.118-82.667h2.279c-16.263 49.27-62.677 84.828-117.397 84.828-68.262 0-123.6-55.338-123.6-123.6z" fill="#ffffff" stroke="transparent" data-fill-palette-color="tertiary"></path></g></svg></g><defs></defs></svg><rect width="395.52" height="247.2" fill="none" stroke="none" visibility="hidden"></rect></g></svg></g></svg>